<svg width="330" height="83" viewBox="0 0 330 83" fill="none" xmlns="http://www.w3.org/2000/svg">
<rect width="330" height="83" rx="3" fill="black"/>
<path d="M71.5908 48.8682H56.8516V46.7939H71.5908V48.8682ZM70.4131 37.917H57.9502V35.9043H70.4131V37.917ZM70.3252 44.5527H58.0381V42.5488H70.3252V44.5527ZM62.6084 42.7422H60.0684V37.7236H62.6084V42.7422ZM68.2422 42.7422H65.7461V37.7236H68.2422V42.7422ZM85.9785 50.7227H83.4561V34.542H85.9785V50.7227ZM74.7197 44.9219C76.2432 44.9277 77.6025 44.8926 78.7979 44.8164C79.999 44.7402 81.209 44.5996 82.4277 44.3945L82.6475 46.4336C81.4639 46.6504 80.2627 46.7998 79.0439 46.8818C77.8252 46.958 76.3838 46.9961 74.7197 46.9961H73.2432V44.9219H74.7197ZM80.9424 42.2236H75.8623V45.7041H73.2432V40.2461H78.3584V37.8906H73.2344V35.8604H80.9424V42.2236ZM96.6221 46.8994H88.7207V35.9834H96.6221V46.8994ZM91.2432 44.9131H94.1523V37.9434H91.2432V44.9131ZM101.518 50.7227H98.9424V34.542H101.518V50.7227ZM115.167 40.3252H111.423V38.2949H115.167V40.3252ZM108.03 35.3945C108.827 35.3887 109.551 35.5557 110.201 35.8955C110.852 36.2295 111.367 36.7012 111.748 37.3105C112.135 37.9141 112.328 38.5967 112.328 39.3584C112.328 40.1025 112.135 40.7764 111.748 41.3799C111.367 41.9775 110.849 42.4492 110.192 42.7949C109.542 43.1348 108.821 43.3047 108.03 43.3047C107.228 43.3047 106.495 43.1348 105.833 42.7949C105.171 42.4492 104.649 41.9775 104.269 41.3799C103.894 40.7764 103.706 40.1025 103.706 39.3584C103.706 38.5967 103.894 37.9141 104.269 37.3105C104.649 36.7012 105.168 36.2295 105.824 35.8955C106.486 35.5557 107.222 35.3887 108.03 35.3945ZM108.03 37.4775C107.655 37.4775 107.321 37.5537 107.028 37.7061C106.735 37.8525 106.507 38.0664 106.343 38.3477C106.179 38.6289 106.097 38.9658 106.097 39.3584C106.097 39.7334 106.179 40.0586 106.343 40.334C106.507 40.6035 106.735 40.8086 107.028 40.9492C107.321 41.084 107.655 41.1543 108.03 41.1602C108.394 41.1543 108.716 41.084 108.997 40.9492C109.284 40.8086 109.507 40.6035 109.665 40.334C109.829 40.0586 109.911 39.7334 109.911 39.3584C109.911 38.9717 109.829 38.6377 109.665 38.3564C109.507 38.0693 109.284 37.8525 108.997 37.7061C108.716 37.5537 108.394 37.4775 108.03 37.4775ZM117.171 43.6562H114.657V34.542H117.171V43.6562ZM117.171 50.5205H106.237V44.333H117.171V50.5205ZM108.777 48.4902H114.701V46.3193H108.777V48.4902ZM137.017 43.8496H134.591V34.5771H137.017V43.8496ZM133.677 43.6914H131.295V34.8232H133.677V43.6914ZM131.954 40.3691H129.467V38.2949H131.954V40.3691ZM130.091 42.9531H123.622V35.7373H130.091V42.9531ZM126.004 41.0898H127.735V37.6533H126.004V41.0898ZM137.017 50.5205H125.916V44.4561H137.017V50.5205ZM128.403 48.4902H134.494V46.4072H128.403V48.4902ZM152.354 50.7227H149.84V34.542H152.354V50.7227ZM150.552 42.1797H146.324V40.1406H150.552V42.1797ZM141.763 39.6133H144.646V35.7988H147.133V46.9697H139.249V35.7988H141.763V39.6133ZM144.646 44.9658V41.582H141.763V44.9658H144.646ZM160.018 36.5195C160.018 37.5449 159.848 38.5029 159.508 39.3936C159.168 40.2783 158.649 41.0488 157.952 41.7051C157.255 42.3613 156.379 42.8389 155.324 43.1377L154.103 41.1514C154.993 40.8994 155.723 40.5332 156.291 40.0527C156.865 39.5723 157.278 39.0303 157.53 38.4268C157.788 37.8174 157.917 37.1816 157.917 36.5195V35.0166H160.018V36.5195ZM160.554 36.5195C160.554 37.1523 160.677 37.7588 160.923 38.3389C161.175 38.9131 161.576 39.4258 162.127 39.877C162.678 40.3281 163.387 40.6738 164.254 40.9141L163.041 42.874C162.004 42.5811 161.143 42.124 160.457 41.5029C159.771 40.8818 159.265 40.1465 158.937 39.2969C158.608 38.4473 158.444 37.5215 158.444 36.5195V35.0166H160.554V36.5195ZM167.778 43.2344H165.238V34.542H167.778V43.2344ZM159.385 45.2471H165.247V43.9023H167.778V50.5205H156.897V43.9023H159.385V45.2471ZM165.247 48.4814V47.207H159.385V48.4814H165.247ZM178.826 42.4258H176.26V40.4219H178.826V42.4258ZM183.81 50.6787H181.393V34.542H183.81V50.6787ZM180.417 49.9668H178.035V34.7617H180.417V49.9668ZM173.421 35.6406C174.147 35.6406 174.78 35.8779 175.319 36.3525C175.858 36.8271 176.274 37.5098 176.567 38.4004C176.866 39.291 177.016 40.3398 177.016 41.5469C177.016 42.7539 176.866 43.8057 176.567 44.7021C176.274 45.5928 175.858 46.2783 175.319 46.7588C174.78 47.2393 174.147 47.4854 173.421 47.4971C172.712 47.4854 172.091 47.2393 171.558 46.7588C171.024 46.2783 170.614 45.5928 170.327 44.7021C170.04 43.8057 169.896 42.7539 169.896 41.5469C169.896 40.3281 170.04 39.2764 170.327 38.3916C170.614 37.5068 171.024 36.8271 171.558 36.3525C172.097 35.8779 172.718 35.6406 173.421 35.6406ZM173.421 38.04C173.163 38.0283 172.943 38.1514 172.762 38.4092C172.586 38.6611 172.454 39.0479 172.366 39.5693C172.278 40.0908 172.234 40.75 172.234 41.5469C172.234 42.3438 172.278 43.0059 172.366 43.5332C172.454 44.0547 172.586 44.4414 172.762 44.6934C172.943 44.9395 173.163 45.0625 173.421 45.0625C173.696 45.0625 173.925 44.9395 174.106 44.6934C174.294 44.4414 174.438 44.0547 174.537 43.5332C174.637 43.0059 174.687 42.3438 174.687 41.5469C174.687 40.75 174.637 40.0908 174.537 39.5693C174.438 39.0479 174.294 38.6611 174.106 38.4092C173.925 38.1514 173.696 38.0283 173.421 38.04ZM202.179 50.6523H199.639V34.542H202.179V50.6523ZM204.35 42.6895H201.52V40.6152H204.35V42.6895ZM197.828 36.1768C197.828 37.8936 197.594 39.4697 197.125 40.9053C196.662 42.335 195.892 43.6475 194.813 44.8428C193.741 46.0381 192.32 47.0723 190.551 47.9453L189.127 46.0205C190.557 45.2939 191.726 44.4854 192.634 43.5947C193.548 42.6982 194.228 41.6816 194.673 40.5449C195.124 39.4082 195.35 38.1074 195.35 36.6426V36.1768H197.828ZM196.624 38.2422H190.076V36.1768H196.624V38.2422ZM218.491 43.2344H215.951V34.542H218.491V43.2344ZM210.098 45.2471H215.96V43.9023H218.491V50.5205H207.61V43.9023H210.098V45.2471ZM215.96 48.4814V47.207H210.098V48.4814H215.96ZM209.614 35.1836C210.452 35.1836 211.211 35.3477 211.891 35.6758C212.57 35.998 213.104 36.4551 213.49 37.0469C213.883 37.6328 214.079 38.3008 214.079 39.0508C214.079 39.7656 213.883 40.416 213.49 41.002C213.104 41.582 212.57 42.0361 211.891 42.3643C211.211 42.6865 210.452 42.8535 209.614 42.8652C208.776 42.8535 208.018 42.6865 207.338 42.3643C206.658 42.0361 206.122 41.582 205.729 41.002C205.343 40.416 205.149 39.7656 205.149 39.0508C205.149 38.3008 205.343 37.6328 205.729 37.0469C206.122 36.4551 206.658 35.998 207.338 35.6758C208.018 35.3477 208.776 35.1836 209.614 35.1836ZM209.614 37.2842C209.222 37.2842 208.873 37.3545 208.568 37.4951C208.27 37.6357 208.035 37.8379 207.865 38.1016C207.701 38.3652 207.619 38.6816 207.619 39.0508C207.619 39.4141 207.701 39.7246 207.865 39.9824C208.035 40.2402 208.27 40.4365 208.568 40.5713C208.873 40.7061 209.222 40.7793 209.614 40.791C210.001 40.7793 210.341 40.7061 210.634 40.5713C210.933 40.4365 211.164 40.2402 211.328 39.9824C211.492 39.7246 211.574 39.4141 211.574 39.0508C211.574 38.6816 211.489 38.3652 211.319 38.1016C211.155 37.8379 210.927 37.6357 210.634 37.4951C210.341 37.3545 210.001 37.2842 209.614 37.2842ZM233.292 50.6787H230.796V34.542H233.292V50.6787ZM235.577 42.8389H232.738V40.7734H235.577V42.8389ZM229.847 38.9189H220.416V36.8975H229.847V38.9189ZM225.162 39.6748C225.953 39.6748 226.665 39.8418 227.298 40.1758C227.931 40.5039 228.429 40.9668 228.792 41.5645C229.155 42.1562 229.337 42.8242 229.337 43.5684C229.337 44.3125 229.155 44.9805 228.792 45.5723C228.429 46.1641 227.931 46.627 227.298 46.9609C226.665 47.2891 225.953 47.4531 225.162 47.4531C224.371 47.4531 223.656 47.2891 223.018 46.9609C222.385 46.627 221.887 46.1641 221.523 45.5723C221.166 44.9805 220.987 44.3125 220.987 43.5684C220.987 42.8242 221.166 42.1562 221.523 41.5645C221.887 40.9668 222.385 40.5039 223.018 40.1758C223.656 39.8418 224.371 39.6748 225.162 39.6748ZM225.162 41.7227C224.822 41.7227 224.518 41.7959 224.248 41.9424C223.984 42.0889 223.776 42.3027 223.624 42.584C223.478 42.8594 223.404 43.1875 223.404 43.5684C223.404 43.9492 223.478 44.2803 223.624 44.5615C223.776 44.8369 223.984 45.0479 224.248 45.1943C224.518 45.335 224.822 45.4053 225.162 45.4053C225.508 45.4053 225.81 45.335 226.067 45.1943C226.331 45.0479 226.536 44.8369 226.683 44.5615C226.829 44.2803 226.902 43.9492 226.902 43.5684C226.902 43.1875 226.829 42.8594 226.683 42.584C226.536 42.3027 226.331 42.0889 226.067 41.9424C225.81 41.7959 225.508 41.7227 225.162 41.7227ZM226.428 37.6357H223.896V34.8145H226.428V37.6357ZM245.069 41.9424H242.45V39.8857H245.069V41.9424ZM240.815 38.5674C240.815 39.8799 240.695 41.1162 240.455 42.2764C240.221 43.4307 239.837 44.4648 239.304 45.3789C238.776 46.293 238.091 47.0078 237.247 47.5234L235.718 45.6514C236.491 45.165 237.112 44.5469 237.581 43.7969C238.05 43.0469 238.384 42.2354 238.583 41.3623C238.788 40.4893 238.891 39.5576 238.891 38.5674V35.9043H240.815V38.5674ZM241.343 38.4443C241.343 39.4287 241.422 40.3311 241.58 41.1514C241.744 41.9717 242.031 42.7363 242.441 43.4453C242.857 44.1484 243.417 44.7344 244.12 45.2031L242.767 47.1543C241.929 46.6445 241.264 45.9443 240.771 45.0537C240.285 44.1631 239.942 43.1729 239.743 42.083C239.55 40.9873 239.453 39.7744 239.453 38.4443V35.9043H241.343V38.4443ZM250.079 50.6787H247.662V34.542H250.079V50.6787ZM246.687 49.9668H244.322V34.7617H246.687V49.9668ZM257.295 47.1543H254.79V42.7158H257.295V47.1543ZM263.201 47.1543H260.644V42.7158H263.201V47.1543ZM266.356 48.8594H251.617V46.7939H266.356V48.8594ZM258.965 35.2627C260.131 35.2627 261.177 35.4473 262.103 35.8164C263.034 36.1797 263.764 36.6953 264.291 37.3633C264.824 38.0254 265.091 38.7871 265.091 39.6484C265.091 40.5156 264.827 41.2803 264.3 41.9424C263.772 42.6045 263.046 43.1172 262.12 43.4805C261.194 43.8379 260.143 44.0195 258.965 44.0254C257.793 44.0195 256.744 43.8379 255.818 43.4805C254.893 43.1172 254.166 42.6045 253.639 41.9424C253.117 41.2803 252.856 40.5156 252.856 39.6484C252.856 38.7871 253.117 38.0254 253.639 37.3633C254.166 36.6953 254.893 36.1797 255.818 35.8164C256.75 35.4473 257.799 35.2627 258.965 35.2627ZM258.965 37.2578C258.227 37.252 257.588 37.3428 257.049 37.5303C256.51 37.7119 256.094 37.9814 255.801 38.3389C255.508 38.6963 255.361 39.1328 255.361 39.6484C255.361 40.1523 255.508 40.5859 255.801 40.9492C256.094 41.3125 256.513 41.5908 257.058 41.7842C257.603 41.9775 258.238 42.0742 258.965 42.0742C259.686 42.0742 260.315 41.9775 260.854 41.7842C261.399 41.5908 261.821 41.3125 262.12 40.9492C262.419 40.5859 262.568 40.1523 262.568 39.6484C262.568 39.1328 262.422 38.6992 262.129 38.3477C261.836 37.9902 261.417 37.7178 260.872 37.5303C260.327 37.3428 259.691 37.252 258.965 37.2578ZM270.9 45.124H268.404L268.132 36.2734H271.182L270.9 45.124ZM269.652 49.1758C269.365 49.1758 269.099 49.1025 268.853 48.9561C268.606 48.8096 268.413 48.6162 268.272 48.376C268.138 48.1299 268.07 47.8633 268.07 47.5762C268.07 47.3008 268.138 47.043 268.272 46.8027C268.413 46.5566 268.606 46.3633 268.853 46.2227C269.099 46.082 269.365 46.0117 269.652 46.0117C269.934 46.0117 270.194 46.082 270.435 46.2227C270.681 46.3633 270.877 46.5566 271.023 46.8027C271.17 47.043 271.243 47.3008 271.243 47.5762C271.243 47.8633 271.17 48.1299 271.023 48.376C270.877 48.6162 270.681 48.8096 270.435 48.9561C270.194 49.1025 269.934 49.1758 269.652 49.1758Z" fill="white"/>
<path d="M276.015 72.2607C276.015 72.6937 275.94 73.1221 275.79 73.5459C275.641 73.9674 275.435 74.3423 275.171 74.6704C274.907 74.9985 274.61 75.2446 274.282 75.4087L273.893 74.8994C274.198 74.7513 274.472 74.536 274.716 74.2534C274.96 73.9686 275.152 73.6519 275.291 73.3032C275.432 72.9523 275.502 72.6048 275.502 72.2607V71.3516H276.015V72.2607ZM276.145 72.2607C276.145 72.5843 276.21 72.9102 276.34 73.2383C276.472 73.5641 276.657 73.8615 276.894 74.1304C277.133 74.3993 277.404 74.6043 277.707 74.7456L277.341 75.2549C277.009 75.0977 276.712 74.863 276.453 74.5508C276.193 74.2363 275.99 73.8797 275.844 73.481C275.701 73.0799 275.629 72.6732 275.629 72.2607V71.3516H276.145V72.2607ZM277.475 71.6079H274.122V71.0747H277.475V71.6079ZM278.78 76.5776H278.134V70.4526H278.78V76.5776ZM279.768 73.4331H278.633V72.8862H279.768V73.4331ZM283.641 73.1494H282.492V72.606H283.641V73.1494ZM281.805 72.1548C281.805 72.5946 281.749 73.0195 281.638 73.4297C281.528 73.8398 281.367 74.2067 281.152 74.5303C280.938 74.8516 280.681 75.1045 280.38 75.2891L279.973 74.8037C280.253 74.6351 280.494 74.4106 280.694 74.1304C280.895 73.8478 281.045 73.5368 281.146 73.1973C281.248 72.8577 281.299 72.5103 281.299 72.1548V71.0132H281.805V72.1548ZM281.925 72.1274C281.925 72.467 281.972 72.7985 282.065 73.1221C282.158 73.4434 282.297 73.7384 282.482 74.0073C282.669 74.2762 282.893 74.4915 283.155 74.6533L282.793 75.1523C282.497 74.9746 282.247 74.7274 282.044 74.4106C281.842 74.0916 281.689 73.7373 281.586 73.3477C281.486 72.958 281.436 72.5513 281.436 72.1274V71.0132H281.925V72.1274ZM285.329 76.5776H284.704V70.4526H285.329V76.5776ZM284.058 76.2769H283.446V70.5688H284.058V76.2769ZM291.184 76.5776H290.531V70.4526H291.184V76.5776ZM289.933 71.9497H286.245V71.4268H289.933V71.9497ZM288.101 72.3975C288.397 72.3975 288.662 72.4578 288.894 72.5786C289.129 72.6994 289.311 72.868 289.441 73.0845C289.573 73.3009 289.639 73.5459 289.639 73.8193C289.639 74.0951 289.573 74.3411 289.441 74.5576C289.311 74.7741 289.129 74.9427 288.894 75.0635C288.662 75.1842 288.397 75.2446 288.101 75.2446C287.807 75.2446 287.542 75.1842 287.305 75.0635C287.07 74.9427 286.887 74.7741 286.754 74.5576C286.625 74.3411 286.56 74.0951 286.56 73.8193C286.56 73.5459 286.625 73.3009 286.754 73.0845C286.887 72.868 287.07 72.6994 287.305 72.5786C287.542 72.4578 287.807 72.3975 288.101 72.3975ZM288.101 72.9341C287.923 72.9341 287.764 72.9717 287.623 73.0469C287.484 73.1198 287.374 73.2235 287.294 73.3579C287.215 73.4924 287.175 73.6462 287.175 73.8193C287.175 73.9948 287.215 74.1486 287.294 74.2808C287.374 74.4129 287.484 74.5166 287.623 74.5918C287.764 74.6647 287.923 74.7012 288.101 74.7012C288.279 74.7012 288.437 74.6647 288.576 74.5918C288.715 74.5166 288.823 74.4129 288.901 74.2808C288.978 74.1486 289.017 73.9948 289.017 73.8193C289.017 73.6462 288.978 73.4924 288.901 73.3579C288.823 73.2235 288.715 73.1198 288.576 73.0469C288.437 72.9717 288.279 72.9341 288.101 72.9341ZM288.412 71.7515H287.759V70.521H288.412V71.7515ZM298.68 73.5527H298.034V70.4526H298.68V73.5527ZM299.572 72.2744H298.399V71.7344H299.572V72.2744ZM298.68 75.3813H295.371V76.2529H294.732V74.8994H298.034V74.3389H294.722V73.8296H298.68V75.3813ZM298.892 76.5024H294.732V75.9863H298.892V76.5024ZM295.569 70.6646C295.879 70.6646 296.156 70.7227 296.4 70.8389C296.644 70.9551 296.834 71.118 296.971 71.3276C297.11 71.535 297.179 71.7697 297.179 72.0317C297.179 72.2961 297.11 72.533 296.971 72.7427C296.834 72.9523 296.644 73.1152 296.4 73.2314C296.156 73.3477 295.879 73.4058 295.569 73.4058C295.264 73.4058 294.989 73.3465 294.746 73.228C294.502 73.1095 294.309 72.9466 294.168 72.7393C294.029 72.5319 293.959 72.2961 293.959 72.0317C293.959 71.7697 294.029 71.535 294.168 71.3276C294.307 71.118 294.498 70.9551 294.742 70.8389C294.988 70.7227 295.264 70.6646 295.569 70.6646ZM295.569 71.2046C295.382 71.2 295.215 71.2331 295.067 71.3037C294.919 71.3743 294.803 71.4735 294.718 71.6011C294.634 71.7264 294.592 71.87 294.592 72.0317C294.592 72.1958 294.634 72.3428 294.718 72.4727C294.803 72.6003 294.919 72.7005 295.067 72.7734C295.215 72.8464 295.382 72.8828 295.569 72.8828C295.756 72.8828 295.924 72.8464 296.072 72.7734C296.22 72.7005 296.336 72.6003 296.42 72.4727C296.505 72.3428 296.547 72.1958 296.547 72.0317C296.547 71.87 296.505 71.7264 296.42 71.6011C296.336 71.4735 296.22 71.3743 296.072 71.3037C295.924 71.2331 295.756 71.2 295.569 71.2046ZM301.561 70.9141C301.866 70.9141 302.136 71.0029 302.371 71.1807C302.608 71.3584 302.794 71.609 302.928 71.9326C303.065 72.2562 303.133 72.6333 303.133 73.064C303.133 73.4969 303.065 73.8752 302.928 74.1987C302.794 74.5223 302.608 74.7729 302.371 74.9507C302.134 75.1261 301.864 75.2139 301.561 75.2139C301.258 75.2139 300.987 75.1261 300.748 74.9507C300.511 74.7729 300.325 74.5223 300.19 74.1987C300.058 73.8752 299.992 73.4969 299.992 73.064C299.992 72.6333 300.058 72.2562 300.19 71.9326C300.325 71.609 300.511 71.3584 300.748 71.1807C300.987 71.0029 301.258 70.9141 301.561 70.9141ZM301.561 71.4951C301.374 71.4951 301.209 71.5589 301.065 71.6865C300.922 71.8141 300.81 71.9964 300.73 72.2334C300.651 72.4681 300.611 72.745 300.611 73.064C300.611 73.3807 300.651 73.6576 300.73 73.8945C300.81 74.1315 300.923 74.3138 301.069 74.4414C301.215 74.5667 301.379 74.6294 301.561 74.6294C301.748 74.6294 301.913 74.5667 302.057 74.4414C302.2 74.3138 302.311 74.1315 302.388 73.8945C302.468 73.6576 302.508 73.3807 302.508 73.064C302.508 72.745 302.468 72.4681 302.388 72.2334C302.311 71.9964 302.2 71.8141 302.057 71.6865C301.913 71.5589 301.748 71.4951 301.561 71.4951ZM304.688 76.5776H304.042V70.4526H304.688V76.5776ZM305.676 73.4058H304.542V72.8521H305.676V73.4058ZM311.572 75.8188H305.967V75.2856H311.572V75.8188ZM309.074 75.436H308.438V73.8569H309.074V75.436ZM307.259 71.9292H310.267V70.873H310.906V74.0278H306.606V70.873H307.259V71.9292ZM310.267 73.5015V72.4521H307.259V73.5015H310.267ZM317.109 76.5776H316.453V70.4526H317.109V76.5776ZM315.291 71.1123C315.291 71.7367 315.194 72.3143 315 72.8452C314.809 73.3739 314.501 73.8615 314.078 74.3081C313.654 74.7524 313.102 75.1375 312.423 75.4634L312.075 74.937C312.665 74.659 313.149 74.3354 313.527 73.9663C313.908 73.5972 314.189 73.1847 314.372 72.729C314.554 72.2733 314.645 71.7697 314.645 71.2183V71.1123H315.291ZM314.925 71.6318H312.372V71.1123H314.925V71.6318ZM320.172 73.3101L323.385 71.7515V72.4966L321.016 73.5767L321.04 73.5356V73.6382L321.016 73.5972L323.385 74.6704V75.4155L320.172 73.8638V73.3101Z" fill="white"/>
</svg>
