<svg width="202" height="37" viewBox="0 0 202 37" fill="none" xmlns="http://www.w3.org/2000/svg">
<path d="M0.415625 35.5989V0.598936H16.6656C19.1323 0.598936 21.3656 1.13227 23.3656 2.19894C25.3656 3.23227 26.9656 4.68227 28.1656 6.54894C29.3656 8.38227 29.9656 10.5323 29.9656 12.9989C29.9656 15.1323 29.449 17.0989 28.4156 18.8989C27.4156 20.6656 26.0656 22.0989 24.3656 23.1989L26.7156 27.0989C26.9156 27.3989 27.1323 27.6323 27.3656 27.7989C27.6323 27.9323 27.9823 27.9989 28.4156 27.9989H31.2156V35.5989H26.0156C24.349 35.5989 22.8656 35.2323 21.5656 34.4989C20.2656 33.7323 19.2656 32.7489 18.5656 31.5489L15.0156 25.4489C14.8156 25.4489 14.6156 25.4489 14.4156 25.4489C14.2156 25.4489 14.0323 25.4489 13.8656 25.4489H9.96563V35.5989H0.415625ZM9.96563 17.8489H15.6656C16.499 17.8489 17.2656 17.6656 17.9656 17.2989C18.699 16.8989 19.2656 16.3323 19.6656 15.5989C20.099 14.8656 20.3156 14.0156 20.3156 13.0489C20.3156 12.0823 20.099 11.2489 19.6656 10.5489C19.2323 9.84894 18.6656 9.3156 17.9656 8.94894C17.2656 8.54894 16.499 8.34894 15.6656 8.34894H9.96563V17.8489ZM44.2953 35.5989C42.3286 35.5989 40.5286 35.1656 38.8953 34.2989C37.262 33.3989 35.962 32.1823 34.9953 30.6489C34.062 29.0823 33.5953 27.3156 33.5953 25.3489C33.5953 23.8489 33.9286 22.4323 34.5953 21.0989C35.262 19.7656 36.1953 18.6323 37.3953 17.6989C36.3286 16.7989 35.462 15.7323 34.7953 14.4989C34.162 13.2323 33.8453 11.9323 33.8453 10.5989C33.8453 8.6656 34.312 6.94894 35.2453 5.44894C36.1786 3.94894 37.4453 2.7656 39.0453 1.89894C40.6453 1.03227 42.3953 0.598936 44.2953 0.598936H59.4953V8.34894H46.1953C45.5953 8.34894 45.0453 8.4656 44.5453 8.69894C44.0786 8.93227 43.6953 9.2656 43.3953 9.69894C43.1286 10.1323 42.9953 10.6489 42.9953 11.2489C42.9953 11.8156 43.1286 12.3156 43.3953 12.7489C43.6953 13.1489 44.0786 13.4823 44.5453 13.7489C45.0453 13.9823 45.5953 14.0989 46.1953 14.0989H57.7453V21.7989H46.2953C45.662 21.7989 45.0953 21.9323 44.5953 22.1989C44.0953 22.4323 43.6953 22.7823 43.3953 23.2489C43.1286 23.7156 42.9953 24.2489 42.9953 24.8489C42.9953 25.4489 43.1286 25.9823 43.3953 26.4489C43.6953 26.8823 44.0953 27.2323 44.5953 27.4989C45.0953 27.7323 45.662 27.8489 46.2953 27.8489H59.4953V35.5989H44.2953ZM68.0398 19.2989C66.6732 19.2989 65.5065 18.7989 64.5398 17.7989C63.5732 16.7989 63.0898 15.6156 63.0898 14.2489C63.0898 12.8823 63.5732 11.7156 64.5398 10.7489C65.5065 9.74894 66.6732 9.24894 68.0398 9.24894C69.4398 9.24894 70.6232 9.74894 71.5898 10.7489C72.5898 11.7156 73.0898 12.8823 73.0898 14.2489C73.0898 15.1489 72.8565 15.9823 72.3898 16.7489C71.9565 17.5156 71.3565 18.1323 70.5898 18.5989C69.8232 19.0656 68.9732 19.2989 68.0398 19.2989ZM68.0398 36.2489C66.6732 36.2489 65.5065 35.7489 64.5398 34.7489C63.5732 33.7489 63.0898 32.5656 63.0898 31.1989C63.0898 29.8323 63.5732 28.6656 64.5398 27.6989C65.5065 26.6989 66.6732 26.1989 68.0398 26.1989C69.4398 26.1989 70.6232 26.6989 71.5898 27.6989C72.5898 28.6656 73.0898 29.8323 73.0898 31.1989C73.0898 32.0989 72.8565 32.9323 72.3898 33.6989C71.9565 34.4656 71.3565 35.0823 70.5898 35.5489C69.8232 36.0156 68.9732 36.2489 68.0398 36.2489ZM77.6699 35.5989V27.8489H92.5699C93.2033 27.8489 93.7366 27.7156 94.1699 27.4489C94.6366 27.1823 95.0033 26.8156 95.2699 26.3489C95.5366 25.8823 95.6699 25.3823 95.6699 24.8489C95.6699 24.2823 95.5366 23.7656 95.2699 23.2989C95.0033 22.8323 94.6366 22.4656 94.1699 22.1989C93.7366 21.9323 93.2033 21.7989 92.5699 21.7989H87.6199C85.5199 21.7989 83.6199 21.3823 81.9199 20.5489C80.2199 19.7156 78.8533 18.5323 77.8199 16.9989C76.8199 15.4323 76.3199 13.5489 76.3199 11.3489C76.3199 9.18227 76.8033 7.29894 77.7699 5.69894C78.7366 4.0656 80.0366 2.8156 81.6699 1.94894C83.3033 1.04894 85.1199 0.598936 87.1199 0.598936H102.82V8.34894H88.3199C87.7866 8.34894 87.3033 8.48227 86.8699 8.74894C86.4699 8.98227 86.1533 9.29894 85.9199 9.69894C85.6866 10.0989 85.5699 10.5489 85.5699 11.0489C85.5699 11.5489 85.6866 12.0156 85.9199 12.4489C86.1533 12.8489 86.4699 13.1823 86.8699 13.4489C87.3033 13.6823 87.7866 13.7989 88.3199 13.7989H93.5699C95.8699 13.7989 97.8699 14.2323 99.5699 15.0989C101.303 15.9656 102.637 17.1823 103.57 18.7489C104.503 20.2823 104.97 22.0989 104.97 24.1989C104.97 26.5989 104.47 28.6656 103.47 30.3989C102.503 32.0989 101.187 33.3989 99.5199 34.2989C97.8866 35.1656 96.0699 35.5989 94.0699 35.5989H77.6699ZM109.506 35.5989V27.8489H124.406C125.039 27.8489 125.573 27.7156 126.006 27.4489C126.473 27.1823 126.839 26.8156 127.106 26.3489C127.373 25.8823 127.506 25.3823 127.506 24.8489C127.506 24.2823 127.373 23.7656 127.106 23.2989C126.839 22.8323 126.473 22.4656 126.006 22.1989C125.573 21.9323 125.039 21.7989 124.406 21.7989H119.456C117.356 21.7989 115.456 21.3823 113.756 20.5489C112.056 19.7156 110.689 18.5323 109.656 16.9989C108.656 15.4323 108.156 13.5489 108.156 11.3489C108.156 9.18227 108.639 7.29894 109.606 5.69894C110.573 4.0656 111.873 2.8156 113.506 1.94894C115.139 1.04894 116.956 0.598936 118.956 0.598936H134.656V8.34894H120.156C119.623 8.34894 119.139 8.48227 118.706 8.74894C118.306 8.98227 117.989 9.29894 117.756 9.69894C117.523 10.0989 117.406 10.5489 117.406 11.0489C117.406 11.5489 117.523 12.0156 117.756 12.4489C117.989 12.8489 118.306 13.1823 118.706 13.4489C119.139 13.6823 119.623 13.7989 120.156 13.7989H125.406C127.706 13.7989 129.706 14.2323 131.406 15.0989C133.139 15.9656 134.473 17.1823 135.406 18.7489C136.339 20.2823 136.806 22.0989 136.806 24.1989C136.806 26.5989 136.306 28.6656 135.306 30.3989C134.339 32.0989 133.023 33.3989 131.356 34.2989C129.723 35.1656 127.906 35.5989 125.906 35.5989H109.506ZM156.142 36.1989C153.142 36.1989 150.492 35.6156 148.192 34.4489C145.892 33.2489 144.092 31.5656 142.792 29.3989C141.492 27.1989 140.842 24.6156 140.842 21.6489V0.598936H150.292V22.0989C150.292 23.2656 150.525 24.3323 150.992 25.2989C151.492 26.2323 152.175 26.9823 153.042 27.5489C153.908 28.0823 154.942 28.3489 156.142 28.3489C157.308 28.3489 158.325 28.0823 159.192 27.5489C160.058 26.9823 160.725 26.2323 161.192 25.2989C161.658 24.3323 161.892 23.2656 161.892 22.0989V0.598936H171.342V21.6489C171.342 24.6156 170.692 27.1989 169.392 29.3989C168.092 31.5656 166.292 33.2489 163.992 34.4489C161.725 35.6156 159.108 36.1989 156.142 36.1989ZM186.19 35.5989C184.223 35.5989 182.423 35.1656 180.79 34.2989C179.157 33.3989 177.857 32.1823 176.89 30.6489C175.957 29.0823 175.49 27.3156 175.49 25.3489C175.49 23.8489 175.823 22.4323 176.49 21.0989C177.157 19.7656 178.09 18.6323 179.29 17.6989C178.223 16.7989 177.357 15.7323 176.69 14.4989C176.057 13.2323 175.74 11.9323 175.74 10.5989C175.74 8.6656 176.207 6.94894 177.14 5.44894C178.073 3.94894 179.34 2.7656 180.94 1.89894C182.54 1.03227 184.29 0.598936 186.19 0.598936H201.39V8.34894H188.09C187.49 8.34894 186.94 8.4656 186.44 8.69894C185.973 8.93227 185.59 9.2656 185.29 9.69894C185.023 10.1323 184.89 10.6489 184.89 11.2489C184.89 11.8156 185.023 12.3156 185.29 12.7489C185.59 13.1489 185.973 13.4823 186.44 13.7489C186.94 13.9823 187.49 14.0989 188.09 14.0989H199.64V21.7989H188.19C187.557 21.7989 186.99 21.9323 186.49 22.1989C185.99 22.4323 185.59 22.7823 185.29 23.2489C185.023 23.7156 184.89 24.2489 184.89 24.8489C184.89 25.4489 185.023 25.9823 185.29 26.4489C185.59 26.8823 185.99 27.2323 186.49 27.4989C186.99 27.7323 187.557 27.8489 188.19 27.8489H201.39V35.5989H186.19Z" fill="black"/>
</svg>
